<svg xmlns="http://www.w3.org/2000/svg" class="svgIcon-use" width="25" height="25"><path d="M16 6c1.1 0 2 .9 2 2v13.661h-.012a.5.5 0 0 1-.118.285.508.508 0 0 1-.708.03L11.5 17.85l-5.662 4.125a.5.5 0 0 1-.706-.03.478.478 0 0 1-.12-.285H5V8c0-1.1.9-2 2-2h9zM6 8v12.636l5.162-3.667a.49.49 0 0 1 .676 0L17 20.637V8c0-.55-.45-1-1-1H7c-.55 0-1 .45-1 1z"/><path d="M21 5v13.661h-.012a.5.5 0 0 1-.118.285.508.508 0 0 1-.708.03L20 18.858V5c0-.55-.45-1-1-1h-9c-.55 0-1 .45-1 1H8c0-1.1.9-2 2-2h9c1.1 0 2 .9 2 2z"/></svg>